<svg width="24" height="30" viewBox="0 0 24 30" fill="none" xmlns="http://www.w3.org/2000/svg">
<path d="M20.0441 15.6591C20.0855 20.1197 23.9572 21.604 24 21.623C23.9672 21.7276 23.3814 23.7382 21.9603 25.8151C20.7318 27.6107 19.4567 29.3996 17.4481 29.4367C15.4747 29.473 14.84 28.2664 12.5836 28.2664C10.3279 28.2664 9.62281 29.3996 7.75456 29.473C5.81581 29.5464 4.33943 27.5315 3.10081 25.7424C0.569556 22.0831 -1.36479 15.4018 1.23256 10.8919C2.52284 8.65219 4.82881 7.23403 7.33156 7.19766C9.23534 7.16138 11.0323 8.47847 12.1961 8.47847C13.3592 8.47847 15.5429 6.89456 17.8386 7.12716C18.7995 7.16719 21.4973 7.51528 23.2295 10.0508C23.0898 10.1374 20.0106 11.93 20.0441 15.6592M16.335 4.70616C17.3644 3.46022 18.0571 1.72584 17.8681 0C16.3844 0.059625 14.5904 0.988687 13.5262 2.23387C12.5725 3.33666 11.7372 5.10159 11.9626 6.79322C13.6164 6.92119 15.3056 5.95284 16.335 4.70616Z" fill="black"/>
</svg>
