<svg width="11" height="11" viewBox="0 0 11 11" fill="none" xmlns="http://www.w3.org/2000/svg">
<path fill-rule="evenodd" clip-rule="evenodd" d="M7.88804 3.75341C7.80971 3.76007 7.73471 3.78924 7.6697 3.83841L4.62633 6.12344L3.21715 4.71008C2.91048 4.39508 2.30964 4.99342 2.62797 5.29926L4.29466 6.96595C4.4405 7.10928 4.66967 7.12595 4.83884 7.00511L8.17221 4.50508C8.45221 4.30341 8.27971 3.76007 7.93137 3.75341H7.88804ZM5.41923 0C6.80592 0 8.18927 0.53084 9.25178 1.58835C10.266 2.6042 10.8393 3.98088 10.8393 5.42007C10.8393 6.85925 10.266 8.23594 9.25178 9.25178C8.2351 10.2668 6.85925 10.8401 5.41923 10.8401C3.98088 10.8401 2.60337 10.2668 1.58752 9.25178C0.572507 8.23594 0 6.85925 0 5.42007C0 3.98088 0.572507 2.6042 1.58752 1.58835C2.60337 0.570007 3.98338 0 5.41923 0Z" fill="white"/>
</svg>
