<svg width="24" height="30" viewBox="0 0 24 30" fill="none" xmlns="http://www.w3.org/2000/svg">
<g clip-path="url(#clip0_363_46589)">
<path d="M20.0436 15.6591C20.085 20.1197 23.9567 21.604 23.9995 21.623C23.9667 21.7276 23.3809 23.7382 21.9598 25.8151C20.7313 27.6107 19.4562 29.3996 17.4476 29.4367C15.4742 29.473 14.8395 28.2664 12.5831 28.2664C10.3274 28.2664 9.62232 29.3996 7.75407 29.473C5.81532 29.5464 4.33894 27.5315 3.10032 25.7424C0.569068 22.0831 -1.36528 15.4018 1.23207 10.8919C2.52235 8.65219 4.82832 7.23403 7.33107 7.19766C9.23485 7.16138 11.0318 8.47847 12.1957 8.47847C13.3587 8.47847 15.5424 6.89456 17.8381 7.12716C18.799 7.16719 21.4968 7.51528 23.229 10.0508C23.0893 10.1374 20.0101 11.93 20.0436 15.6592M16.3345 4.70616C17.3639 3.46022 18.0566 1.72584 17.8676 0C16.3839 0.059625 14.5899 0.988687 13.5257 2.23387C12.572 3.33666 11.7368 5.10159 11.9621 6.79322C13.6159 6.92119 15.3052 5.95284 16.3345 4.70616Z" fill="#E8E8E9"/>
</g>
<defs>
<clipPath id="clip0_363_46589">
<rect width="24" height="29.5312" fill="white"/>
</clipPath>
</defs>
</svg>
